<svg width="40" height="40" viewBox="0 0 40 40" fill="none" xmlns="http://www.w3.org/2000/svg">
<path d="M23.3335 10.8333V7.49996H16.6668V10.8333H23.3335ZM6.66683 14.1666V32.5H33.3335V14.1666H6.66683ZM33.3335 10.8333C35.1835 10.8333 36.6668 12.3166 36.6668 14.1666V32.5C36.6668 34.35 35.1835 35.8333 33.3335 35.8333H6.66683C4.81683 35.8333 3.3335 34.35 3.3335 32.5L3.35016 14.1666C3.35016 12.3166 4.81683 10.8333 6.66683 10.8333H13.3335V7.49996C13.3335 5.64996 14.8168 4.16663 16.6668 4.16663H23.3335C25.1835 4.16663 26.6668 5.64996 26.6668 7.49996V10.8333H33.3335Z" fill="#424242"/>
</svg>
