<svg width="57" height="57" viewBox="0 0 57 57" fill="none" xmlns="http://www.w3.org/2000/svg">
<rect x="28.2842" width="40" height="40" transform="rotate(45 28.2842 0)" fill="#8E1728"/>
<path d="M11.157 25.581L9.18799 19.509L9.70499 19.542L10.211 19.509C10.2477 19.619 10.3027 19.8096 10.376 20.081C10.4273 20.279 10.4823 20.477 10.541 20.675L11.19 22.908L12.114 25.812H12.213C12.3523 25.4013 12.62 24.6276 13.016 23.491C13.456 22.2076 13.7273 21.4156 13.83 21.115C14.1013 20.2936 14.2737 19.7583 14.347 19.509L14.666 19.542L14.974 19.509L17.064 25.812H17.163C17.3097 25.438 17.4563 25.02 17.603 24.558L18.89 20.411L19.154 19.509L19.539 19.542L19.924 19.509C19.7187 19.9856 19.5353 20.455 19.374 20.917L17.273 27.033L16.91 27L16.547 27.033L14.556 20.862H14.468L12.334 27.033L11.971 27L11.597 27.033L11.157 25.581Z" fill="white"/>
<path d="M24.599 23.557V26.109C24.599 26.219 24.599 26.3253 24.599 26.428C24.621 26.582 24.72 26.659 24.896 26.659C24.9913 26.659 25.0977 26.6443 25.215 26.615V26.857C25.1783 26.8716 25.1233 26.8936 25.05 26.923C24.984 26.945 24.907 26.9633 24.819 26.978C24.7383 26.9926 24.6393 27 24.522 27C24.3093 27 24.1333 26.9486 23.994 26.846C23.862 26.7433 23.7813 26.571 23.752 26.329L23.653 26.428C23.191 26.89 22.6483 27.121 22.025 27.121C21.6217 27.121 21.277 26.9963 20.991 26.747C20.705 26.4976 20.562 26.175 20.562 25.779C20.562 25.2216 20.771 24.822 21.189 24.58C21.4457 24.4333 21.915 24.305 22.597 24.195C23.0737 24.1143 23.3743 24.041 23.499 23.975C23.675 23.8796 23.763 23.7073 23.763 23.458C23.763 23.0473 23.6493 22.732 23.422 22.512C23.202 22.2846 22.8867 22.171 22.476 22.171C22.124 22.171 21.816 22.2663 21.552 22.457C21.3467 22.6036 21.2183 22.7613 21.167 22.93H21.046V22.314C21.332 22.116 21.618 21.9656 21.904 21.863C22.1973 21.7603 22.5017 21.709 22.817 21.709C24.005 21.709 24.599 22.325 24.599 23.557ZM23.719 25.9V24.294L23.334 24.371C22.696 24.4956 22.2927 24.5946 22.124 24.668C21.684 24.866 21.464 25.185 21.464 25.625C21.464 25.9623 21.5593 26.219 21.75 26.395C21.9407 26.571 22.2047 26.659 22.542 26.659C22.6813 26.659 22.8353 26.6186 23.004 26.538C23.1727 26.45 23.312 26.351 23.422 26.241C23.4807 26.1896 23.543 26.131 23.609 26.065C23.6823 25.9916 23.719 25.9366 23.719 25.9Z" fill="white"/>
<path d="M26.249 25.966H26.337C26.4763 26.2006 26.6597 26.395 26.887 26.549C27.1143 26.703 27.3527 26.78 27.602 26.78C27.8807 26.78 28.13 26.6846 28.35 26.494C28.57 26.3033 28.68 26.065 28.68 25.779C28.68 25.3243 28.2473 24.9723 27.382 24.723C26.5167 24.4736 26.084 24.0116 26.084 23.337C26.084 22.8236 26.2527 22.424 26.59 22.138C26.9273 21.852 27.3563 21.709 27.877 21.709C28.1337 21.709 28.3757 21.742 28.603 21.808C28.8377 21.8666 29.01 21.929 29.12 21.995C29.01 22.2443 28.922 22.5046 28.856 22.776H28.757C28.6837 22.5853 28.559 22.4166 28.383 22.27C28.207 22.1233 28.02 22.05 27.822 22.05C27.536 22.05 27.2977 22.1306 27.107 22.292C26.9163 22.4533 26.821 22.677 26.821 22.963C26.821 23.403 27.2537 23.7623 28.119 24.041C28.9843 24.3196 29.417 24.767 29.417 25.383C29.417 25.933 29.2007 26.3693 28.768 26.692C28.3867 26.978 27.9283 27.121 27.393 27.121C27.1657 27.121 26.9237 27.088 26.667 27.022C26.4177 26.9633 26.2013 26.879 26.018 26.769C26.062 26.637 26.106 26.505 26.15 26.373C26.194 26.2336 26.227 26.098 26.249 25.966Z" fill="white"/>
<path d="M34.7044 25.9L34.6934 26.472C34.4074 26.6773 34.1067 26.8386 33.7914 26.956C33.476 27.066 33.146 27.121 32.8014 27.121C32.024 27.121 31.397 26.879 30.9204 26.395C30.4437 25.911 30.2054 25.251 30.2054 24.415C30.2054 23.6156 30.418 22.974 30.8434 22.49C31.298 21.9693 31.925 21.709 32.7244 21.709C33.377 21.709 33.9014 21.9253 34.2974 22.358C34.7374 22.8346 34.9574 23.5166 34.9574 24.404L32.7244 24.371H31.1734C31.1734 25.031 31.3237 25.5663 31.6244 25.977C31.9617 26.4316 32.4457 26.659 33.0764 26.659C33.4137 26.659 33.74 26.571 34.0554 26.395C34.268 26.2776 34.4844 26.1126 34.7044 25.9ZM31.1734 23.964H34.0994C34.0994 23.3993 34.0077 22.9593 33.8244 22.644C33.597 22.248 33.2304 22.05 32.7244 22.05C32.233 22.05 31.8444 22.2516 31.5584 22.655C31.3017 23.0143 31.1734 23.4506 31.1734 23.964Z" fill="white"/>
<path d="M40.6884 18.772V27.033L40.2484 27L39.8084 27.033V25.977C39.361 26.7396 38.7304 27.121 37.9164 27.121C37.2637 27.121 36.743 26.9046 36.3544 26.472C35.929 26.0026 35.7164 25.3316 35.7164 24.459C35.7164 23.6816 35.9327 23.029 36.3654 22.501C36.798 21.973 37.37 21.709 38.0814 21.709C38.448 21.709 38.778 21.8043 39.0714 21.995C39.3647 22.1783 39.6104 22.4386 39.8084 22.776V18.772L40.2484 18.805L40.6884 18.772ZM39.8084 24.261C39.8084 23.711 39.702 23.2453 39.4894 22.864C39.2254 22.3946 38.8367 22.16 38.3234 22.16C37.6927 22.16 37.2454 22.4276 36.9814 22.963C36.7834 23.359 36.6844 23.909 36.6844 24.613C36.6844 25.1703 36.7907 25.6396 37.0034 26.021C37.2674 26.4903 37.6634 26.725 38.1914 26.725C38.7634 26.725 39.1924 26.4426 39.4784 25.878C39.6984 25.438 39.8084 24.899 39.8084 24.261Z" fill="white"/>
<path d="M45.9867 23.557V26.109C45.9867 26.219 45.9867 26.3253 45.9867 26.428C46.0087 26.582 46.1077 26.659 46.2837 26.659C46.379 26.659 46.4854 26.6443 46.6027 26.615V26.857C46.566 26.8716 46.511 26.8936 46.4377 26.923C46.3717 26.945 46.2947 26.9633 46.2067 26.978C46.126 26.9926 46.027 27 45.9097 27C45.697 27 45.521 26.9486 45.3817 26.846C45.2497 26.7433 45.169 26.571 45.1397 26.329L45.0407 26.428C44.5787 26.89 44.036 27.121 43.4127 27.121C43.0094 27.121 42.6647 26.9963 42.3787 26.747C42.0927 26.4976 41.9497 26.175 41.9497 25.779C41.9497 25.2216 42.1587 24.822 42.5767 24.58C42.8334 24.4333 43.3027 24.305 43.9847 24.195C44.4613 24.1143 44.762 24.041 44.8867 23.975C45.0627 23.8796 45.1507 23.7073 45.1507 23.458C45.1507 23.0473 45.037 22.732 44.8097 22.512C44.5897 22.2846 44.2744 22.171 43.8637 22.171C43.5117 22.171 43.2037 22.2663 42.9397 22.457C42.7343 22.6036 42.606 22.7613 42.5547 22.93H42.4337V22.314C42.7197 22.116 43.0057 21.9656 43.2917 21.863C43.585 21.7603 43.8894 21.709 44.2047 21.709C45.3927 21.709 45.9867 22.325 45.9867 23.557ZM45.1067 25.9V24.294L44.7217 24.371C44.0837 24.4956 43.6804 24.5946 43.5117 24.668C43.0717 24.866 42.8517 25.185 42.8517 25.625C42.8517 25.9623 42.947 26.219 43.1377 26.395C43.3284 26.571 43.5924 26.659 43.9297 26.659C44.069 26.659 44.223 26.6186 44.3917 26.538C44.5604 26.45 44.6997 26.351 44.8097 26.241C44.8684 26.1896 44.9307 26.131 44.9967 26.065C45.07 25.9916 45.1067 25.9366 45.1067 25.9Z" fill="white"/>
<path d="M19.6784 30.037V37.055L19.1944 37.022L18.7104 37.055V30.037C18.1384 30.037 17.7314 30.0443 17.4894 30.059C17.2474 30.0736 16.8514 30.1103 16.3014 30.169L16.3344 29.839L16.3014 29.509H21.9774L21.9444 29.839L21.9774 30.169C21.706 30.1396 21.3614 30.1103 20.9434 30.081C20.5327 30.0516 20.111 30.037 19.6784 30.037Z" fill="white"/>
<path d="M24.1627 31.775V37.033L23.7227 37L23.2827 37.033V31.775L23.7227 31.808L24.1627 31.775ZM24.2837 29.894C24.2837 30.048 24.2287 30.18 24.1187 30.29C24.0087 30.4 23.8767 30.455 23.7227 30.455C23.5687 30.455 23.4367 30.4 23.3267 30.29C23.2167 30.18 23.1617 30.048 23.1617 29.894C23.1617 29.74 23.2167 29.608 23.3267 29.498C23.4367 29.388 23.5687 29.333 23.7227 29.333C23.8694 29.333 23.9977 29.388 24.1077 29.498C24.225 29.6006 24.2837 29.7326 24.2837 29.894Z" fill="white"/>
<path d="M26.0362 37.033V31.775L26.4762 31.808L26.9162 31.775V32.721C27.0995 32.3983 27.3232 32.149 27.5872 31.973C27.8585 31.797 28.1775 31.709 28.5442 31.709C28.9109 31.709 29.2409 31.8043 29.5342 31.995C29.8349 32.1856 30.0402 32.4533 30.1502 32.798C30.5829 32.072 31.1585 31.709 31.8772 31.709C32.5225 31.709 32.9845 31.896 33.2632 32.27C33.5199 32.6073 33.6482 33.1353 33.6482 33.854V37.033L33.2082 37L32.7682 37.033V34.107C32.7682 33.513 32.7022 33.0876 32.5702 32.831C32.3869 32.4643 32.0459 32.281 31.5472 32.281C31.0559 32.281 30.7075 32.479 30.5022 32.875C30.3555 33.161 30.2822 33.557 30.2822 34.063V37.033L29.8422 37L29.4022 37.033V33.81C29.4022 32.7906 29.0135 32.281 28.2362 32.281C27.7229 32.281 27.3635 32.4386 27.1582 32.754C26.9969 33.0033 26.9162 33.3626 26.9162 33.832V37.033L26.4762 37L26.0362 37.033Z" fill="white"/>
<path d="M39.2913 35.9L39.2803 36.472C38.9943 36.6773 38.6936 36.8386 38.3783 36.956C38.063 37.066 37.733 37.121 37.3883 37.121C36.611 37.121 35.984 36.879 35.5073 36.395C35.0306 35.911 34.7923 35.251 34.7923 34.415C34.7923 33.6156 35.005 32.974 35.4303 32.49C35.885 31.9693 36.512 31.709 37.3113 31.709C37.964 31.709 38.4883 31.9253 38.8843 32.358C39.3243 32.8346 39.5443 33.5166 39.5443 34.404L37.3113 34.371H35.7603C35.7603 35.031 35.9106 35.5663 36.2113 35.977C36.5486 36.4316 37.0326 36.659 37.6633 36.659C38.0006 36.659 38.327 36.571 38.6423 36.395C38.855 36.2776 39.0713 36.1126 39.2913 35.9ZM35.7603 33.964H38.6863C38.6863 33.3993 38.5946 32.9593 38.4113 32.644C38.184 32.248 37.8173 32.05 37.3113 32.05C36.82 32.05 36.4313 32.2516 36.1453 32.655C35.8886 33.0143 35.7603 33.4506 35.7603 33.964Z" fill="white"/>
</svg>
