<svg width="40" height="40" viewBox="0 0 40 40" fill="none" xmlns="http://www.w3.org/2000/svg">
<path d="M20.0002 3.33337C10.8002 3.33337 3.3335 10.8 3.3335 20C3.3335 29.2 10.8002 36.6667 20.0002 36.6667C29.2002 36.6667 36.6668 29.2 36.6668 20C36.6668 10.8 29.2002 3.33337 20.0002 3.33337ZM11.7835 30.4667C12.5002 28.9667 16.8668 27.5 20.0002 27.5C23.1335 27.5 27.5168 28.9667 28.2168 30.4667C25.9502 32.2667 23.1002 33.3334 20.0002 33.3334C16.9002 33.3334 14.0502 32.2667 11.7835 30.4667ZM30.6002 28.05C28.2168 25.15 22.4335 24.1667 20.0002 24.1667C17.5668 24.1667 11.7835 25.15 9.40016 28.05C7.70016 25.8167 6.66683 23.0334 6.66683 20C6.66683 12.65 12.6502 6.66671 20.0002 6.66671C27.3502 6.66671 33.3335 12.65 33.3335 20C33.3335 23.0334 32.3002 25.8167 30.6002 28.05ZM20.0002 10C16.7668 10 14.1668 12.6 14.1668 15.8334C14.1668 19.0667 16.7668 21.6667 20.0002 21.6667C23.2335 21.6667 25.8335 19.0667 25.8335 15.8334C25.8335 12.6 23.2335 10 20.0002 10ZM20.0002 18.3334C18.6168 18.3334 17.5002 17.2167 17.5002 15.8334C17.5002 14.45 18.6168 13.3334 20.0002 13.3334C21.3835 13.3334 22.5002 14.45 22.5002 15.8334C22.5002 17.2167 21.3835 18.3334 20.0002 18.3334Z" fill="#424242"/>
</svg>
