<svg width="40" height="40" viewBox="0 0 40 40" fill="none" xmlns="http://www.w3.org/2000/svg">
<path d="M11.6667 18.3334H15V21.6667H11.6667V18.3334ZM35 10V33.3334C35 35.1667 33.5 36.6667 31.6667 36.6667H8.33333C6.48333 36.6667 5 35.1667 5 33.3334L5.01667 10C5.01667 8.16671 6.48333 6.66671 8.33333 6.66671H10V3.33337H13.3333V6.66671H26.6667V3.33337H30V6.66671H31.6667C33.5 6.66671 35 8.16671 35 10ZM8.33333 13.3334H31.6667V10H8.33333V13.3334ZM31.6667 33.3334V16.6667H8.33333V33.3334H31.6667ZM25 21.6667H28.3333V18.3334H25V21.6667ZM18.3333 21.6667H21.6667V18.3334H18.3333V21.6667Z" fill="#424242"/>
</svg>
