<svg width="40" height="40" viewBox="0 0 40 40" fill="none" xmlns="http://www.w3.org/2000/svg">
<path d="M6.66683 10H3.3335V33.3334C3.3335 35.1667 4.8335 36.6667 6.66683 36.6667H30.0002V33.3334H6.66683V10ZM33.3335 3.33337H13.3335C11.5002 3.33337 10.0002 4.83337 10.0002 6.66671V26.6667C10.0002 28.5 11.5002 30 13.3335 30H33.3335C35.1668 30 36.6668 28.5 36.6668 26.6667V6.66671C36.6668 4.83337 35.1668 3.33337 33.3335 3.33337ZM33.3335 26.6667H13.3335V6.66671H33.3335V26.6667ZM16.6668 15H30.0002V18.3334H16.6668V15ZM16.6668 20H23.3335V23.3334H16.6668V20ZM16.6668 10H30.0002V13.3334H16.6668V10Z" fill="#424242"/>
</svg>
